<?xml version="1.0" encoding="UTF-8" standalone="no"?>
<svg width="427px" height="427px" viewBox="0 0 427 427" version="1.1" xmlns="http://www.w3.org/2000/svg" xmlns:xlink="http://www.w3.org/1999/xlink">
    <!-- Generator: Sketch 39.1 (31720) - http://www.bohemiancoding.com/sketch -->
    <title>Group</title>
    <desc>Created with Sketch.</desc>
    <defs></defs>
    <g id="Page-1" stroke="none" stroke-width="1" fill="none" fill-rule="evenodd">
        <g id="Group">
            <polygon id="Fill-1-Copy" fill="#DEDB97" points="0 427 427 427 427 0 0 0"></polygon>
            <path d="M281.75,296.399 C281.75,298.276 251.361,299.798 213.875,299.798 C176.389,299.798 146,298.276 146,296.399 C146,294.521 176.389,293 213.875,293 C251.361,293 281.75,294.521 281.75,296.399 L281.75,296.399 Z" id="Fill-2-Copy" fill="#353842"></path>
            <path d="M296.75,211.875 C296.75,257.093 260.093,293.75 214.875,293.75 C169.657,293.75 133,257.093 133,211.875 C133,166.657 169.657,130 214.875,130 C260.093,130 296.75,166.657 296.75,211.875" id="Fill-4-Copy" fill="#FEFEFE"></path>
            <path d="M295.75,212 C295.75,257.218 259.093,293.875 213.875,293.875 C168.657,293.875 132,257.218 132,212 C132,235.822 168.657,275.774 213.875,275.774 C259.093,275.774 295.75,236.766 295.75,212" id="Fill-6-Copy" fill="#F8F5D7"></path>
            <path d="M213.875,133 C170.383,133 135,168.383 135,211.875 C135,255.367 170.383,290.75 213.875,290.75 C257.367,290.75 292.75,255.367 292.75,211.875 C292.75,168.383 257.367,133 213.875,133 M213.875,296.75 C167.075,296.75 129,258.675 129,211.875 C129,165.075 167.075,127 213.875,127 C260.675,127 298.75,165.075 298.75,211.875 C298.75,258.675 260.675,296.75 213.875,296.75" id="Fill-8-Copy" fill="#353842"></path>
            <path d="M212.660747,245.532226 C206.129747,245.532226 202.614747,237.864226 202.235747,236.990226 C201.738747,235.843226 202.044747,234.507226 202.991747,233.691226 C203.937747,232.876226 205.303747,232.771226 206.364747,233.433226 C206.376747,233.440226 208.860747,234.932226 211.784747,234.932226 C215.102747,234.932226 219.295747,233.231226 219.337747,233.214226 C220.409747,232.775226 221.640747,233.027226 222.453747,233.852226 C223.265747,234.676226 223.500747,235.910226 223.046747,236.975226 C222.672747,237.850226 219.202747,245.532226 212.660747,245.532226" id="Fill-10-Copy" fill="#353842"></path>
            <path d="M254.128,208.667818 C254.53,209.232818 255.294,209.349818 255.88,208.979818 C256.823,208.385818 257.936,208.039818 259.133,208.039818 C260.329,208.039818 261.443,208.385818 262.386,208.979818 C262.973,209.349818 263.738,209.231818 264.14,208.664818 C265.078,207.342818 265.506,205.635818 265.129,203.820818 C264.645,201.498818 262.771,199.619818 260.449,199.136818 C256.487,198.313818 253,201.315818 253,205.132818 C253,206.450818 253.419,207.669818 254.128,208.667818" id="Fill-12-Copy" fill="#353842"></path>
            <path d="M162.128,208.667818 C162.53,209.232818 163.294,209.349818 163.88,208.979818 C164.823,208.385818 165.936,208.039818 167.133,208.039818 C168.329,208.039818 169.443,208.385818 170.385,208.979818 C170.973,209.349818 171.738,209.231818 172.14,208.664818 C173.078,207.342818 173.506,205.635818 173.129,203.820818 C172.645,201.498818 170.771,199.619818 168.449,199.136818 C164.487,198.313818 161,201.315818 161,205.132818 C161,206.450818 161.419,207.669818 162.128,208.667818" id="Fill-14-Copy" fill="#353842"></path>
            <path d="M254,163 C257.638,165.888 260.269,168.428 262.333,173.79" id="Stroke-16-Copy" stroke="#F8F6D9" stroke-width="7" stroke-linecap="round" stroke-linejoin="round"></path>
            <path d="M238,154 C238,154 240.862,155.141 244.131,156.584" id="Stroke-18-Copy" stroke="#F8F6D9" stroke-width="7" stroke-linecap="round" stroke-linejoin="round"></path>
            <path d="M140,180.229 C140,180.229 179.315,158.947 209.289,188.542 C211.513,190.738 215.122,190.677 217.286,188.421 C226.492,178.824 248.51,159.028 285.805,179.272 C285.805,179.272 267.783,132 214.709,132 C161.635,132 140,180.229 140,180.229" id="Fill-342" fill="#00997D"></path>
        </g>
    </g>
</svg>