<?xml version="1.0" encoding="UTF-8" standalone="no"?>
<svg width="427px" height="427px" viewBox="0 0 427 427" version="1.1" xmlns="http://www.w3.org/2000/svg" xmlns:xlink="http://www.w3.org/1999/xlink">
    <!-- Generator: Sketch 39.1 (31720) - http://www.bohemiancoding.com/sketch -->
    <title>Group 2</title>
    <desc>Created with Sketch.</desc>
    <defs></defs>
    <g id="Page-1" stroke="none" stroke-width="1" fill="none" fill-rule="evenodd">
        <g id="Group-2">
            <polygon id="Fill-257-Copy" fill="#DCE1ED" points="0 427 427 427 427 0 0 0"></polygon>
            <path d="M281.75,296.399 C281.75,298.276 251.361,299.798 213.875,299.798 C176.389,299.798 146,298.276 146,296.399 C146,294.521 176.389,293 213.875,293 C251.361,293 281.75,294.521 281.75,296.399 L281.75,296.399 Z" id="Fill-260-Copy" fill="#353842"></path>
            <path d="M295.75,210.875 C295.75,256.093 259.093,292.75 213.875,292.75 C168.657,292.75 132,256.093 132,210.875 C132,165.657 168.657,129 213.875,129 C259.093,129 295.75,165.657 295.75,210.875" id="Fill-262-Copy" fill="#FEFEFE"></path>
            <path d="M295.75,211 C295.75,256.218 259.093,292.875 213.875,292.875 C168.657,292.875 132,256.218 132,211 C132,234.822 168.657,274.774 213.875,274.774 C259.093,274.774 295.75,235.766 295.75,211" id="Fill-264-Copy" fill="#F0F4FA"></path>
            <path d="M213.875,132 C170.383,132 135,167.383 135,210.875 C135,254.367 170.383,289.75 213.875,289.75 C257.367,289.75 292.75,254.367 292.75,210.875 C292.75,167.383 257.367,132 213.875,132 M213.875,295.75 C167.075,295.75 129,257.675 129,210.875 C129,164.075 167.075,126 213.875,126 C260.675,126 298.75,164.075 298.75,210.875 C298.75,257.675 260.675,295.75 213.875,295.75" id="Fill-266-Copy" fill="#353842"></path>
            <path d="M241,155 C245.35,156.631 248.633,158.24 252.245,162.708" id="Stroke-268-Copy" stroke="#F2F7FC" stroke-width="7" stroke-linecap="round" stroke-linejoin="round"></path>
            <path d="M225,151.061714 C225,151.061714 227.407,150.847714 230.962,151.216714" id="Stroke-270-Copy" stroke="#F2F7FC" stroke-width="7" stroke-linecap="round" stroke-linejoin="round"></path>
            <path d="M171.747,205.373 C171.747,208.34 169.341,210.746 166.373,210.746 C163.405,210.746 161,208.34 161,205.373 C161,202.405 163.406,200 166.374,200 C169.341,200 171.747,202.406 171.747,205.373" id="Fill-272-Copy" fill="#353842"></path>
            <path d="M264.747,205.373 C264.747,208.34 262.341,210.746 259.373,210.746 C256.405,210.746 254,208.34 254,205.373 C254,202.405 256.406,200 259.374,200 C262.341,200 264.747,202.406 264.747,205.373" id="Fill-274-Copy" fill="#353842"></path>
            <path d="M196,237 L228.612,237" id="Stroke-276-Copy" stroke="#353842" stroke-width="8" stroke-linecap="round" stroke-linejoin="round"></path>
        </g>
    </g>
</svg>