<?xml version="1.0" encoding="UTF-8" standalone="no"?>
<svg width="427px" height="427px" viewBox="0 0 427 427" version="1.1" xmlns="http://www.w3.org/2000/svg" xmlns:xlink="http://www.w3.org/1999/xlink">
    <!-- Generator: Sketch 39.1 (31720) - http://www.bohemiancoding.com/sketch -->
    <title>Group 3</title>
    <desc>Created with Sketch.</desc>
    <defs></defs>
    <g id="Page-1" stroke="none" stroke-width="1" fill="none" fill-rule="evenodd">
        <g id="Group-3">
            <polygon id="Fill-278-Copy" fill="#A4D49C" points="0 427 427 427 427 0 0 0"></polygon>
            <path d="M280.75,296.399 C280.75,298.276 250.361,299.798 212.875,299.798 C175.389,299.798 145,298.276 145,296.399 C145,294.522 175.389,293 212.875,293 C250.361,293 280.75,294.522 280.75,296.399 L280.75,296.399 Z" id="Fill-281-Copy" fill="#353842"></path>
            <path d="M295.75,211.875 C295.75,257.093 259.093,293.75 213.875,293.75 C168.657,293.75 132,257.093 132,211.875 C132,166.657 168.657,130 213.875,130 C259.093,130 295.75,166.657 295.75,211.875" id="Fill-283-Copy" fill="#FEFEFE"></path>
            <path d="M294.75,211 C294.75,256.218 258.093,292.875 212.875,292.875 C167.657,292.875 131,256.218 131,211 C131,234.822 167.657,274.774 212.875,274.774 C258.093,274.774 294.75,235.766 294.75,211" id="Fill-285-Copy" fill="#D5E9CD"></path>
            <path d="M212.875,133 C169.383,133 134,168.383 134,211.875 C134,255.367 169.383,290.75 212.875,290.75 C256.367,290.75 291.75,255.367 291.75,211.875 C291.75,168.383 256.367,133 212.875,133 M212.875,296.75 C166.075,296.75 128,258.675 128,211.875 C128,165.075 166.075,127 212.875,127 C259.675,127 297.75,165.075 297.75,211.875 C297.75,258.675 259.675,296.75 212.875,296.75" id="Fill-287-Copy" fill="#353842"></path>
            <path d="M171.747,205.373 C171.747,208.34 169.341,210.746 166.373,210.746 C163.406,210.746 161,208.34 161,205.373 C161,202.406 163.406,200 166.374,200 C169.341,200 171.747,202.406 171.747,205.373" id="Fill-289-Copy" fill="#353842"></path>
            <path d="M264.747,205.373 C264.747,208.34 262.341,210.746 259.373,210.746 C256.405,210.746 254,208.34 254,205.373 C254,202.406 256.406,200 259.374,200 C262.341,200 264.747,202.406 264.747,205.373" id="Fill-291-Copy" fill="#353842"></path>
            <path d="M235.251803,243.584526 C234.129803,243.585526 233.029803,243.037526 232.368803,242.028526 C232.241803,241.844526 228.769803,236.886526 221.391803,236.886526 C217.501803,236.886526 215.580803,238.202526 213.148803,239.868526 C210.605803,241.610526 207.723803,243.584526 202.914803,243.584526 C193.363803,243.584526 187.838803,235.732526 187.608803,235.398526 C186.529803,233.833526 186.922803,231.688526 188.488803,230.609526 C190.050803,229.531526 192.184803,229.922526 193.266803,231.473526 C193.341803,231.578526 197.062803,236.698526 202.914803,236.698526 C205.590803,236.698526 207.128803,235.645526 209.257803,234.187526 C211.980803,232.321526 215.368803,230.001526 221.391803,230.001526 C232.591803,230.001526 237.907803,237.917526 238.127803,238.254526 C239.170803,239.845526 238.725803,241.979526 237.135803,243.021526 C236.553803,243.402526 235.898803,243.584526 235.251803,243.584526" id="Fill-322-Copy" fill="#353842"></path>
            <path d="M254,162 C257.638,164.888 260.269,167.428 262.333,172.79" id="Stroke-324-Copy" stroke="#D5E7CD" stroke-width="7" stroke-linecap="round" stroke-linejoin="round"></path>
            <path d="M239,153 C239,153 241.862,154.141 245.131,155.584" id="Stroke-326-Copy" stroke="#D5E7CD" stroke-width="7" stroke-linecap="round" stroke-linejoin="round"></path>
        </g>
    </g>
</svg>