<?xml version="1.0" encoding="UTF-8" standalone="no"?>
<svg width="427px" height="427px" viewBox="0 0 427 427" version="1.1" xmlns="http://www.w3.org/2000/svg" xmlns:xlink="http://www.w3.org/1999/xlink">
    <!-- Generator: Sketch 39.1 (31720) - http://www.bohemiancoding.com/sketch -->
    <title>Group 4</title>
    <desc>Created with Sketch.</desc>
    <defs></defs>
    <g id="Page-1" stroke="none" stroke-width="1" fill="none" fill-rule="evenodd">
        <g id="Group-4">
            <polygon id="Fill-175-Copy" fill="#B1B2B5" points="0 427 427 427 427 0 0 0"></polygon>
            <path d="M283.75,296.399 C283.75,298.276 253.361,299.798 215.875,299.798 C178.389,299.798 148,298.276 148,296.399 C148,294.522 178.389,293 215.875,293 C253.361,293 283.75,294.522 283.75,296.399 L283.75,296.399 Z" id="Fill-177-Copy" fill="#353842"></path>
            <path d="M297.75,211.875 C297.75,257.093 261.093,293.75 215.875,293.75 C170.657,293.75 134,257.093 134,211.875 C134,166.657 170.657,130 215.875,130 C261.093,130 297.75,166.657 297.75,211.875" id="Fill-179-Copy" fill="#FEFEFE"></path>
            <path d="M297.75,211 C297.75,256.218 261.093,292.875 215.875,292.875 C170.657,292.875 134,256.218 134,211 C134,234.822 170.657,274.774 215.875,274.774 C261.093,274.774 297.75,235.766 297.75,211" id="Fill-181-Copy" fill="#ECEDF2"></path>
            <path d="M215.875,133 C172.383,133 137,168.383 137,211.875 C137,255.367 172.383,290.749 215.875,290.749 C259.367,290.749 294.75,255.367 294.75,211.875 C294.75,168.383 259.367,133 215.875,133 M215.875,296.749 C169.075,296.749 131,258.675 131,211.875 C131,165.075 169.075,127 215.875,127 C262.675,127 300.75,165.075 300.75,211.875 C300.75,258.675 262.675,296.749 215.875,296.749" id="Fill-183-Copy" fill="#353842"></path>
            <path d="M243,155 C247.35,156.631 250.633,158.24 254.245,162.708" id="Stroke-185-Copy" stroke="#ECEDF2" stroke-width="7" stroke-linecap="round" stroke-linejoin="round"></path>
            <path d="M226,151.061714 C226,151.061714 228.407,150.847714 231.962,151.216714" id="Stroke-187-Copy" stroke="#ECEDF2" stroke-width="7" stroke-linecap="round" stroke-linejoin="round"></path>
            <path d="M257,201 L266.182,210.182" id="Stroke-189-Copy" stroke="#353842" stroke-width="5" stroke-linecap="round" stroke-linejoin="round"></path>
            <path d="M257,210.182 L266.182,201" id="Stroke-191-Copy" stroke="#353842" stroke-width="5" stroke-linecap="round" stroke-linejoin="round"></path>
            <path d="M207,234 L221.423,248.423" id="Stroke-193-Copy" stroke="#353842" stroke-width="5" stroke-linecap="round" stroke-linejoin="round"></path>
            <path d="M207,248.423 L221.423,234" id="Stroke-195-Copy" stroke="#353842" stroke-width="5" stroke-linecap="round" stroke-linejoin="round"></path>
            <path d="M164,201 L173.182,210.182" id="Stroke-197-Copy" stroke="#353842" stroke-width="5" stroke-linecap="round" stroke-linejoin="round"></path>
            <path d="M164,210.182 L173.182,201" id="Stroke-199-Copy" stroke="#353842" stroke-width="5" stroke-linecap="round" stroke-linejoin="round"></path>
        </g>
    </g>
</svg>