<?xml version="1.0" encoding="UTF-8" standalone="no"?>
<svg width="427px" height="427px" viewBox="0 0 427 427" version="1.1" xmlns="http://www.w3.org/2000/svg" xmlns:xlink="http://www.w3.org/1999/xlink">
    <!-- Generator: Sketch 39.1 (31720) - http://www.bohemiancoding.com/sketch -->
    <title>Group 6</title>
    <desc>Created with Sketch.</desc>
    <defs></defs>
    <g id="Page-1" stroke="none" stroke-width="1" fill="none" fill-rule="evenodd">
        <g id="Group-6">
            <polygon id="Fill-126" fill="#C4727B" points="0 427 427 427 427 0 0 0"></polygon>
            <path d="M281.75,296.399 C281.75,298.276 251.361,299.798 213.875,299.798 C176.389,299.798 146,298.276 146,296.399 C146,294.522 176.389,293 213.875,293 C251.361,293 281.75,294.522 281.75,296.399" id="Fill-128" fill="#353842"></path>
            <path d="M319.688,253 L215.627,258 L213.061,258 L109,253 C161.402,290.798 185.701,296.204 214.344,296.204 C249.039,296.204 267.286,290.798 319.688,253" id="Fill-316" fill="#1F2227"></path>
            <path d="M296.75,211.875 C296.75,257.093 260.093,293.75 214.875,293.75 C169.657,293.75 133,257.093 133,211.875 C133,166.657 169.657,130 214.875,130 C260.093,130 296.75,166.657 296.75,211.875" id="Fill-328" fill="#FEFEFE"></path>
            <path d="M295.75,212 C295.75,257.218 259.093,293.875 213.875,293.875 C168.657,293.875 132,257.218 132,212 C132,235.822 168.657,275.774 213.875,275.774 C259.093,275.774 295.75,236.766 295.75,212" id="Fill-330" fill="#ECEDF2"></path>
            <path d="M213.875,133 C170.383,133 135,168.383 135,211.875 C135,255.367 170.383,290.75 213.875,290.75 C257.367,290.75 292.75,255.367 292.75,211.875 C292.75,168.383 257.367,133 213.875,133 M213.875,296.75 C167.075,296.75 129,258.675 129,211.875 C129,165.075 167.075,127 213.875,127 C260.675,127 298.75,165.075 298.75,211.875 C298.75,258.675 260.675,296.75 213.875,296.75" id="Fill-332" fill="#353842"></path>
            <path d="M254.128,208.667818 C254.53,209.232818 255.294,209.349818 255.88,208.979818 C256.823,208.385818 257.936,208.039818 259.133,208.039818 C260.329,208.039818 261.443,208.385818 262.385,208.979818 C262.973,209.349818 263.738,209.231818 264.14,208.664818 C265.078,207.342818 265.506,205.635818 265.129,203.820818 C264.645,201.498818 262.771,199.619818 260.449,199.136818 C256.487,198.313818 253,201.315818 253,205.132818 C253,206.450818 253.419,207.669818 254.128,208.667818" id="Fill-334" fill="#353842"></path>
            <path d="M162.128,208.667818 C162.53,209.232818 163.294,209.349818 163.88,208.979818 C164.823,208.385818 165.936,208.039818 167.133,208.039818 C168.329,208.039818 169.443,208.385818 170.385,208.979818 C170.973,209.349818 171.738,209.231818 172.14,208.664818 C173.078,207.342818 173.506,205.635818 173.129,203.820818 C172.645,201.498818 170.771,199.619818 168.449,199.136818 C164.487,198.313818 161,201.315818 161,205.132818 C161,206.450818 161.419,207.669818 162.128,208.667818" id="Fill-336" fill="#353842"></path>
            <path d="M150.186262,191.603461 C149.758262,192.532461 150.086262,193.655461 150.981262,194.199461 C151.944262,194.784461 153.197262,194.478461 153.783262,193.515461 C156.461262,189.103461 159.802262,186.617461 163.712262,186.128461 C166.526262,185.775461 168.605262,186.612461 168.626262,186.621461 C169.643262,187.050461 170.812262,186.593461 171.271262,185.598461 C171.280262,185.577461 171.290262,185.557461 171.298262,185.536461 C171.736262,184.499461 171.250262,183.302461 170.213262,182.863461 C170.095262,182.814461 158.392262,178.058461 150.295262,191.396461 C150.254262,191.464461 150.218262,191.533461 150.186262,191.603461" id="Fill-338" fill="#353842"></path>
            <path d="M275.273079,192.603461 C275.701079,193.532461 275.373079,194.655461 274.478079,195.199461 C273.515079,195.784461 272.261079,195.478461 271.676079,194.515461 C268.998079,190.103461 265.657079,187.617461 261.747079,187.128461 C258.933079,186.775461 256.854079,187.612461 256.833079,187.621461 C255.816079,188.050461 254.647079,187.593461 254.188079,186.598461 C254.179079,186.577461 254.169079,186.557461 254.161079,186.536461 C253.723079,185.499461 254.209079,184.302461 255.246079,183.863461 C255.364079,183.814461 267.066079,179.058461 275.164079,192.396461 C275.205079,192.464461 275.241079,192.533461 275.273079,192.603461" id="Fill-340" fill="#353842"></path>
            <path d="M139,178.229 C139,178.229 178.315,156.947 208.289,186.542 C210.513,188.738 214.122,188.677 216.286,186.421 C225.492,176.824 247.51,157.028 284.805,177.272 C284.805,177.272 266.783,130 213.709,130 C160.635,130 139,178.229 139,178.229" id="Fill-342" fill="#353842"></path>
            <path d="M136.006529,196.744 C136.006529,196.744 140.505529,170.92 163.824529,170.92 C187.143529,170.92 172.582529,152 172.582529,152 L151.788529,162.589 C151.788529,162.589 135.628529,181.021 136.006529,196.744" id="Fill-344" fill="#353842"></path>
            <path d="M292.744259,196.744 C292.744259,196.744 284.583259,170.58 259.186259,168.892 C235.918259,167.345 256.168259,152 256.168259,152 L276.962259,162.589 C276.962259,162.589 293.122259,181.021 292.744259,196.744" id="Fill-346" fill="#353842"></path>
            <path d="M200.463712,239 L200.001712,248.138 C199.938712,249.38 201.631712,249.799 202.154712,248.671 L205.896712,240.6 L200.463712,239 Z" id="Fill-348" fill="#353842"></path>
            <path d="M224.433,239 L224.895,248.138 C224.958,249.38 223.265,249.799 222.742,248.671 L219,240.6 L224.433,239 Z" id="Fill-350" fill="#353842"></path>
            <path d="M201,238.009 C201,238.009 206.647,240.084 212.264,240.081 C217.823,240.079 223.352,238 223.352,238" id="Stroke-352" stroke="#353842" stroke-width="7" stroke-linecap="round" stroke-linejoin="round"></path>
            <path d="M233.499768,165.634509 C232.029768,165.634509 230.660768,164.700509 230.176768,163.227509 C229.571768,161.391509 230.569768,159.412509 232.406768,158.809509 C236.895768,157.331509 241.151768,156.228509 247.836768,157.682509 C249.725768,158.093509 250.923768,159.957509 250.512768,161.846509 C250.101768,163.735509 248.242768,164.934509 246.348768,164.522509 C241.372768,163.438509 238.337768,164.226509 234.594768,165.457509 C234.231768,165.577509 233.862768,165.634509 233.499768,165.634509" id="Fill-354" fill="#464951"></path>
            <path d="M217.503034,173.700086 C216.398034,173.700086 215.311034,173.178086 214.630034,172.203086 C213.524034,170.617086 213.912034,168.435086 215.497034,167.330086 C215.603034,167.257086 218.110034,165.508086 221.133034,163.558086 C222.757034,162.512086 224.923034,162.979086 225.972034,164.602086 C227.020034,166.227086 226.552034,168.393086 224.928034,169.441086 C222.017034,171.318086 219.527034,173.054086 219.503034,173.070086 C218.893034,173.496086 218.194034,173.700086 217.503034,173.700086" id="Fill-356" fill="#464951"></path>
        </g>
    </g>
</svg>