<?xml version="1.0" encoding="UTF-8" standalone="no"?>
<svg width="195px" height="213px" viewBox="0 0 195 213" version="1.1" xmlns="http://www.w3.org/2000/svg" xmlns:xlink="http://www.w3.org/1999/xlink">
    <!-- Generator: Sketch 39.1 (31720) - http://www.bohemiancoding.com/sketch -->
    <title>Group</title>
    <desc>Created with Sketch.</desc>
    <defs></defs>
    <g id="Page-1" stroke="none" stroke-width="1" fill="none" fill-rule="evenodd">
        <g id="Group">
            <path d="M111.604455,76.9920662 C117.014227,80.4025181 120.807638,86.1737132 121.498278,92.8727626 C123.70453,93.9092581 126.153164,94.5053164 128.74927,94.5053164 C138.226956,94.5053164 145.908686,86.7815165 145.908686,77.2533923 C145.908686,67.7237999 138.226956,60 128.74927,60 C119.362112,60.0029362 111.747548,67.5887325 111.604455,76.9920662 L111.604455,76.9920662 Z M100.362935,112.318064 C109.840621,112.318064 117.522351,104.592796 117.522351,95.0646716 C117.522351,85.5365474 109.839161,77.8127475 100.362935,77.8127475 C90.8867091,77.8127475 83.200599,85.5380155 83.200599,95.0661397 C83.200599,104.594264 90.8867091,112.318064 100.362935,112.318064 L100.362935,112.318064 Z M107.64167,113.494031 L93.0812804,113.494031 C80.9666043,113.494031 71.110745,123.405336 71.110745,135.58636 L71.110745,153.490131 L71.156009,153.770543 L72.3825159,154.156659 C83.9438038,157.788798 93.9880195,159 102.25526,159 C118.402808,159 127.762224,154.371005 128.338974,154.075912 L129.485174,153.493067 L129.607825,153.493067 L129.607825,135.58636 C129.612205,123.405336 119.756346,113.494031 107.64167,113.494031 L107.64167,113.494031 Z M136.030925,95.6827518 L121.582965,95.6827518 C121.426732,101.495054 118.959116,106.728916 115.056196,110.493186 C125.824635,113.712782 133.703482,123.753281 133.703482,135.612786 L133.703482,141.129996 C147.968925,140.604407 156.189442,136.539172 156.731149,136.266101 L157.877349,135.681788 L158,135.681788 L158,117.772144 C158,105.592588 148.144141,95.6827518 136.030925,95.6827518 L136.030925,95.6827518 Z M70.2536503,94.5082526 C73.610483,94.5082526 76.7336952,93.5231415 79.3794459,91.8450759 C80.2204792,86.3293343 83.1611756,81.5094835 87.3619618,78.2267584 C87.3794833,77.9037712 87.410146,77.5837201 87.410146,77.2577966 C87.410146,67.7282043 79.7269562,60.0044044 70.2536503,60.0044044 C60.7745039,60.0044044 53.0942344,67.7282043 53.0942344,77.2577966 C53.0942344,86.7829846 60.7745039,94.5082526 70.2536503,94.5082526 L70.2536503,94.5082526 Z M85.6638338,110.493186 C81.7798952,106.748002 79.3210408,101.542034 79.1414452,95.7649667 C78.6055784,95.7253274 78.0755522,95.6827518 77.5294646,95.6827518 L62.9705354,95.6827518 C50.8558592,95.6827518 41,105.592588 41,117.772144 L41,135.678852 L41.0452639,135.954859 L42.2717709,136.343912 C51.5464994,139.255201 59.8239611,140.597067 67.0136279,141.019886 L67.0136279,135.612786 C67.0165481,123.753281 74.8924747,113.715718 85.6638338,110.493186 L85.6638338,110.493186 Z" id="Shape" fill="#4990E2"></path>
            <path d="M39.5010835,42.0958975 C70.8251774,13.746195 117.703005,13.3127133 149.460351,39.1915702 L124.28843,40.1452299 C121.039043,40.2752744 118.526183,42.9628609 118.656159,46.2139736 C118.786134,49.3783899 121.385644,51.8492356 124.505056,51.8492356 L124.721682,51.8492356 L163.367729,50.418746 C166.530466,50.2887015 169,47.7311595 169,44.5667432 L169,44.1332615 L169,43.9165206 L169,43.8731725 L169,43.8731725 L167.57027,5.64008743 C167.440294,2.38897476 164.710809,-0.125219039 161.504747,0.00482546782 C158.255359,0.134869975 155.7425,2.82245645 155.872475,6.07356912 L156.782304,30.0451066 C141.055269,17.1707004 121.68892,9.71481532 100.979492,8.67445926 C75.3309945,7.37401419 50.6789759,16.1736925 31.6592287,33.4262637 C5.49082936,57.1377122 -5.60041274,93.2033888 2.71801884,127.535139 C3.3678963,130.222725 5.75078035,132 8.39361538,132 C8.87019219,132 9.30344383,131.956652 9.78002064,131.826607 C12.8994325,131.04634 14.8490649,127.881924 14.0692119,124.760856 C6.7905843,94.5905302 16.4954211,62.9030187 39.5010835,42.0958975 L39.5010835,42.0958975 Z" id="Shape" fill="#4990E2"></path>
            <path d="M192.275398,85.4637306 C191.493656,82.3425167 188.323259,80.391758 185.196292,81.1720615 C182.069325,81.952365 180.114971,85.1169291 180.896712,88.238143 C188.236399,118.409878 178.464627,150.098869 155.403245,170.906962 C139.203818,185.515977 118.878532,192.712109 98.6401059,192.712109 C79.3137121,192.712109 60.0307484,186.16623 44.4827732,173.247873 L70.019671,170.950312 C73.2334983,170.646861 75.6221537,167.829098 75.318143,164.577834 C75.0141324,161.326569 72.191176,158.985659 68.9339186,159.28911 L30.3245611,162.757126 C27.1107338,163.060577 24.7220784,165.87834 25.0260891,169.129604 L28.5004969,207.667926 C28.7610775,210.70244 31.3234533,213 34.3201301,213 C34.4938505,213 34.6675709,213 34.8412913,212.95665 C38.0551186,212.653198 40.443774,209.835436 40.1397633,206.584171 L38.0551186,183.131717 C53.8202443,195.876674 73.1466381,203.289557 93.7759349,204.329961 C95.4262786,204.416662 97.0766224,204.460012 98.683536,204.460012 C122.61352,204.460012 145.370892,195.703273 163.264092,179.577001 C189.495872,155.864445 200.613977,119.840434 192.275398,85.4637306 L192.275398,85.4637306 Z" id="Shape" fill="#4990E2"></path>
        </g>
    </g>
</svg>
